<?xml version="1.0" encoding="UTF-8"?>
<svg version="1.1" xmlns="http://www.w3.org/2000/svg" width="386" height="220">
<path d="M0 0 C7.85830216 6.82688701 14.98952122 14.05291145 21.16943359 22.45849609 C21.56050293 22.98572266 21.95157227 23.51294922 22.35449219 24.05615234 C38.1669834 45.64881361 47.24836732 71.10893074 51.16943359 97.45849609 C51.29962891 98.23193359 51.42982422 99.00537109 51.56396484 99.80224609 C52.10104974 103.52603472 52.21053477 107.24324765 52.22412109 111.00146484 C52.22710205 111.82404785 52.23008301 112.64663086 52.2331543 113.49414062 C52.23138855 117.14923251 52.20491825 120.80357645 52.16943359 124.45849609 C61.52134989 109.5913471 67.48944802 94.50160733 72.96899414 77.91088867 C84.24657902 43.93129881 84.24657902 43.93129881 98.54443359 35.45849609 C101.16943359 34.45849609 101.16943359 34.45849609 103.16943359 34.45849609 C103.5078125 33.28673828 103.5078125 33.28673828 103.85302734 32.09130859 C108.64671724 18.86243143 116.17128044 6.22854585 125.16943359 -4.54150391 C126.09701809 -5.6699984 127.02407906 -6.79892338 127.95068359 -7.92822266 C130.33406133 -10.81886076 132.74416887 -13.68586861 135.16943359 -16.54150391 C135.49943359 -15.55150391 135.82943359 -14.56150391 136.16943359 -13.54150391 C134.95743685 -11.36417308 133.70897166 -9.39382727 132.29443359 -7.35400391 C119.87941951 10.8426132 119.87941951 10.8426132 113.16943359 31.45849609 C118.85388921 27.15798239 123.90128003 22.86238521 128.47021484 17.38818359 C130.77626397 14.76935999 133.34021353 12.56341712 136.00146484 10.31396484 C138.45215225 8.21652968 140.80330016 6.02570242 143.16943359 3.83349609 C147.28326774 0.12596655 151.28354332 -2.92406269 156.16943359 -5.54150391 C156.82943359 -5.21150391 157.48943359 -4.88150391 158.16943359 -4.54150391 C157.4132373 -3.80101807 156.65704102 -3.06053223 155.87792969 -2.29760742 C153.04098131 0.48452882 150.21439297 3.27700209 147.390625 6.07250977 C146.17332112 7.27484284 144.95332401 8.47445609 143.73046875 9.67114258 C132.15269691 19.80016232 132.15269691 19.80016232 125.87792969 33.03051758 C126.31583665 36.67790845 128.49244903 38.1161346 131.16943359 40.45849609 C129.73259837 44.00472772 128.08839898 45.38896768 124.91943359 47.45849609 C117.53386432 53.04875133 114.28848614 61.14504767 112.81396484 70.13037109 C112.51478215 72.48707635 112.23814601 74.84673295 111.98193359 77.20849609 C111.82523193 78.46839355 111.66853027 79.72829102 111.50708008 81.02636719 C110.8989616 85.95650385 110.34465406 90.8919525 109.79248047 95.82861328 C106.48563542 125.29206059 100.45372126 149.73046513 77.30224609 170.04443359 C51.3826591 190.01738218 19.04316416 193.39025429 -12.64306641 193.08349609 C-13.99517469 193.07777681 -15.34728714 193.07297477 -16.69940186 193.06906128 C-38.83875741 192.99074824 -60.61485492 191.41093355 -82.54466248 188.32147217 C-114.66655803 183.80210105 -149.02320834 186.0096592 -180.93652344 191.54370117 C-185.33188264 192.30520252 -189.39094928 192.58036794 -193.83056641 192.45849609 C-167.93340668 170.96769272 -129.65453558 157.0453566 -96.08056641 157.08349609 C-94.79432373 157.08293213 -93.50808105 157.08236816 -92.18286133 157.08178711 C-79.67991293 157.17557989 -67.46328773 158.79945615 -55.09619141 160.49755859 C-27.27188591 164.29700558 4.5428892 163.8345407 28.66162109 147.52099609 C36.83468768 140.79922171 41.47750953 131.81095643 43.16943359 121.45849609 C46.44168645 86.96106247 32.45774571 49.30140576 10.88818359 22.64990234 C-6.73174044 1.61611802 -30.44958532 -13.97800706 -57.83056641 -18.54150391 C-58.82830078 -18.70779297 -58.82830078 -18.70779297 -59.84619141 -18.87744141 C-84.9784417 -22.32149052 -111.92186344 -16.15990309 -132.61767578 -1.25439453 C-150.64885686 12.61420534 -163.09810999 30.71484407 -166.83056641 53.45849609 C-168.73470623 75.02193383 -164.95476614 94.91593365 -151.58056641 112.33349609 C-140.27143447 125.34281848 -123.96603445 133.30941934 -106.80322266 134.70458984 C-91.59092091 135.04441787 -77.75500927 131.43472369 -64.83056641 123.45849609 C-64.22599609 123.10271484 -63.62142578 122.74693359 -62.99853516 122.38037109 C-51.92013483 115.2781912 -45.86732156 102.88521783 -42.83056641 90.45849609 C-41.45585367 75.20877573 -44.79071613 62.01486654 -53.83056641 49.45849609 C-60.52189434 42.02964704 -69.73361487 36.98126562 -79.74853516 36.12255859 C-90.12555121 35.90259389 -99.18989924 36.66270765 -107.76806641 43.14599609 C-113.50754386 48.70611488 -115.06991294 54.65935117 -115.33056641 62.52099609 C-115.10625473 69.23587477 -114.21347332 74.27217457 -109.21728516 78.97802734 C-103.13939214 83.65436632 -97.73405551 84.91321423 -90.17041016 83.93505859 C-86.27992246 83.14267212 -83.84991993 81.80218937 -81.45556641 78.64599609 C-80.28410239 74.54587205 -81.74770024 70.48057041 -82.83056641 66.45849609 C-81.18056641 66.12849609 -79.53056641 65.79849609 -77.83056641 65.45849609 C-74.33245533 69.72181897 -73.1575819 72.73665958 -73.45556641 78.28662109 C-74.20647053 82.63560746 -76.26343142 85.27351083 -79.73681641 87.89990234 C-86.61983854 92.40725452 -92.64182093 93.21872445 -100.83056641 92.45849609 C-108.01293788 90.73056325 -113.41383571 87.39242436 -117.83056641 81.45849609 C-122.9333772 72.97590153 -125.1944168 64.82097661 -123.36962891 54.97021484 C-120.93568831 45.76419248 -116.5399476 38.73800494 -108.33447266 33.73974609 C-94.09211355 26.45192427 -80.81055374 25.95205066 -65.68701172 30.75634766 C-61.13532752 32.47789471 -57.52015396 35.36377486 -53.83056641 38.45849609 C-52.77869141 39.20099609 -51.72681641 39.94349609 -50.64306641 40.70849609 C-39.97221524 51.14221724 -34.76088521 65.82258776 -33.83056641 80.45849609 C-33.66997903 96.37671995 -39.62634094 111.26036552 -50.58056641 122.77099609 C-65.6145984 136.96348621 -83.91213793 143.02029645 -104.29174805 142.87792969 C-122.3743549 142.34543153 -138.38322 135.57561938 -151.83056641 123.45849609 C-152.46478516 122.90548828 -153.09900391 122.35248047 -153.75244141 121.78271484 C-167.97662333 108.59702408 -175.06494749 87.5032666 -175.83056641 68.45849609 C-175.90791016 67.22679688 -175.90791016 67.22679688 -175.98681641 65.97021484 C-176.76396075 44.1130302 -167.69635879 23.88771228 -153.83056641 7.45849609 C-153.06744141 6.44787109 -152.30431641 5.43724609 -151.51806641 4.39599609 C-111.69492141 -39.13162751 -43.06242038 -36.2624863 0 0 Z M92.92285156 49.96899414 C86.50794528 59.07687487 83.39543689 70.2911497 80.04605103 80.79779053 C72.60931156 104.03167558 64.76585922 125.83125361 47.16943359 143.45849609 C46.48494141 144.15458984 45.80044922 144.85068359 45.09521484 145.56787109 C25.64696261 164.11740557 -1.67306445 169.66575243 -27.64306641 169.77099609 C-28.35798248 169.77494385 -29.07289856 169.7788916 -29.80947876 169.78295898 C-41.18045316 169.81180222 -52.2490183 168.91688224 -63.51806641 167.45849609 C-98.25844226 163.01222528 -128.714837 166.22681993 -160.83056641 180.45849609 C-160.83056641 180.78849609 -160.83056641 181.11849609 -160.83056641 181.45849609 C-158.7471646 181.31364419 -156.66384936 181.16754738 -154.58056641 181.02099609 C-153.42041016 180.93978516 -152.26025391 180.85857422 -151.06494141 180.77490234 C-148.77944385 180.61221255 -146.49931679 180.42769873 -144.21777344 180.21557617 C-135.8853855 179.45316759 -127.56981724 179.09265057 -119.20556641 179.02099609 C-118.44764801 179.01415802 -117.68972961 179.00731995 -116.90884399 179.00027466 C-94.25288906 178.90268583 -71.77245247 181.90289559 -49.29568481 184.44190979 C-10.74969284 188.73114179 38.40012766 190.67851201 70.75 165.21435547 C93.99428091 145.77653011 99.62728702 121.20214906 102.85934448 92.35806274 C103.18800288 89.43257082 103.52483954 86.50803049 103.86083984 83.58337402 C104.10078593 81.45063891 104.32505855 79.3166631 104.54833984 77.18212891 C106.09070372 63.17179464 109.06984692 52.55808277 119.16943359 42.45849609 C119.16943359 41.79849609 119.16943359 41.13849609 119.16943359 40.45849609 C108.93201798 35.33978829 99.18592792 42.20379785 92.92285156 49.96899414 Z " fill="#5170FE" transform="translate(213.83056640625,27.54150390625)"/>
</svg>
